<?xml version="1.0" encoding="UTF-8" standalone="no"?>
<!DOCTYPE svg PUBLIC "-//W3C//DTD SVG 1.1//EN"
 "http://www.w3.org/Graphics/SVG/1.1/DTD/svg11.dtd">
<!-- Generated by graphviz version 8.0.5 (20230506.1012)
 -->
<!-- Title: snakemake_dag Pages: 1 -->
<svg width="129pt" height="332pt"
 viewBox="0.00 0.00 129.00 332.00" xmlns="http://www.w3.org/2000/svg" xmlns:xlink="http://www.w3.org/1999/xlink">
<g id="graph0" class="graph" transform="scale(1 1) rotate(0) translate(4 328)">
<title>snakemake_dag</title>
<polygon fill="white" stroke="none" points="-4,4 -4,-328 125,-328 125,4 -4,4"/>
<!-- 0 -->
<g id="node1" class="node">
<title>0</title>
<path fill="none" stroke="#d85656" stroke-width="2" d="M75.5,-36C75.5,-36 45.5,-36 45.5,-36 39.5,-36 33.5,-30 33.5,-24 33.5,-24 33.5,-12 33.5,-12 33.5,-6 39.5,0 45.5,0 45.5,0 75.5,0 75.5,0 81.5,0 87.5,-6 87.5,-12 87.5,-12 87.5,-24 87.5,-24 87.5,-30 81.5,-36 75.5,-36"/>
<text text-anchor="middle" x="60.5" y="-14.88" font-family="sans" font-size="10.00">all</text>
</g>
<!-- 1 -->
<g id="node2" class="node">
<title>1</title>
<path fill="none" stroke="#d8bc56" stroke-width="2" d="M75.5,-108C75.5,-108 45.5,-108 45.5,-108 39.5,-108 33.5,-102 33.5,-96 33.5,-96 33.5,-84 33.5,-84 33.5,-78 39.5,-72 45.5,-72 45.5,-72 75.5,-72 75.5,-72 81.5,-72 87.5,-78 87.5,-84 87.5,-84 87.5,-96 87.5,-96 87.5,-102 81.5,-108 75.5,-108"/>
<text text-anchor="middle" x="60.5" y="-86.88" font-family="sans" font-size="10.00">seqkit</text>
</g>
<!-- 1&#45;&gt;0 -->
<g id="edge1" class="edge">
<title>1&#45;&gt;0</title>
<path fill="none" stroke="grey" stroke-width="2" d="M60.5,-71.34C60.5,-64.75 60.5,-57.08 60.5,-49.67"/>
<polygon fill="grey" stroke="grey" stroke-width="2" points="64,-49.9 60.5,-39.9 57,-49.9 64,-49.9"/>
</g>
<!-- 2 -->
<g id="node3" class="node">
<title>2</title>
<path fill="none" stroke="#56c1d8" stroke-width="2" d="M109,-180C109,-180 12,-180 12,-180 6,-180 0,-174 0,-168 0,-168 0,-156 0,-156 0,-150 6,-144 12,-144 12,-144 109,-144 109,-144 115,-144 121,-150 121,-156 121,-156 121,-168 121,-168 121,-174 115,-180 109,-180"/>
<text text-anchor="middle" x="60.5" y="-158.88" font-family="sans" font-size="10.00">assembled_sequence</text>
</g>
<!-- 2&#45;&gt;1 -->
<g id="edge2" class="edge">
<title>2&#45;&gt;1</title>
<path fill="none" stroke="grey" stroke-width="2" d="M60.5,-143.34C60.5,-136.75 60.5,-129.08 60.5,-121.67"/>
<polygon fill="grey" stroke="grey" stroke-width="2" points="64,-121.9 60.5,-111.9 57,-121.9 64,-121.9"/>
</g>
<!-- 3 -->
<g id="node4" class="node">
<title>3</title>
<path fill="none" stroke="#88d856" stroke-width="2" d="M87.25,-252C87.25,-252 33.75,-252 33.75,-252 27.75,-252 21.75,-246 21.75,-240 21.75,-240 21.75,-228 21.75,-228 21.75,-222 27.75,-216 33.75,-216 33.75,-216 87.25,-216 87.25,-216 93.25,-216 99.25,-222 99.25,-228 99.25,-228 99.25,-240 99.25,-240 99.25,-246 93.25,-252 87.25,-252"/>
<text text-anchor="middle" x="60.5" y="-230.88" font-family="sans" font-size="10.00">getorganelle</text>
</g>
<!-- 3&#45;&gt;2 -->
<g id="edge3" class="edge">
<title>3&#45;&gt;2</title>
<path fill="none" stroke="grey" stroke-width="2" d="M60.5,-215.34C60.5,-208.75 60.5,-201.08 60.5,-193.67"/>
<polygon fill="grey" stroke="grey" stroke-width="2" points="64,-193.9 60.5,-183.9 57,-193.9 64,-193.9"/>
</g>
<!-- 4 -->
<g id="node5" class="node">
<title>4</title>
<path fill="none" stroke="#56d88a" stroke-width="2" d="M77.5,-324C77.5,-324 43.5,-324 43.5,-324 37.5,-324 31.5,-318 31.5,-312 31.5,-312 31.5,-300 31.5,-300 31.5,-294 37.5,-288 43.5,-288 43.5,-288 77.5,-288 77.5,-288 83.5,-288 89.5,-294 89.5,-300 89.5,-300 89.5,-312 89.5,-312 89.5,-318 83.5,-324 77.5,-324"/>
<text text-anchor="middle" x="60.5" y="-302.88" font-family="sans" font-size="10.00">fastp_pe</text>
</g>
<!-- 4&#45;&gt;3 -->
<g id="edge4" class="edge">
<title>4&#45;&gt;3</title>
<path fill="none" stroke="grey" stroke-width="2" d="M60.5,-287.34C60.5,-280.75 60.5,-273.08 60.5,-265.67"/>
<polygon fill="grey" stroke="grey" stroke-width="2" points="64,-265.9 60.5,-255.9 57,-265.9 64,-265.9"/>
</g>
</g>
</svg>
